<svg xmlns="http://www.w3.org/2000/svg" viewBox="0 0 200 200" fill="none" aria-hidden="true">
  <style>
    .b { fill: currentColor; opacity: 0.12; }
    .s { stroke: currentColor; stroke-width: 2.2; stroke-linecap: round; stroke-linejoin: round; opacity: 0.75; }
    .f { fill: currentColor; opacity: 0.75; }
    .a { stroke: currentColor; stroke-width: 2; stroke-linecap: round; opacity: 0.45; }
    .d { fill: currentColor; opacity: 0.55; }
  </style>

  <ellipse cx="100" cy="178" rx="48" ry="8" class="b"/>
  <rect x="58" y="54" width="84" height="98" rx="18" class="s"/>
  <rect x="58" y="54" width="84" height="98" rx="18" class="b"/>
  <path d="M58 72h84" class="a"/>
  <circle cx="72" cy="63" r="3" class="d"/>
  <circle cx="82" cy="63" r="3" class="d"/>
  <circle cx="92" cy="63" r="3" class="d"/>
  <!-- sleepy/relaxed eyes -->
  <path d="M78 98c3-4 8-4 11 0" class="s"/>
  <path d="M111 98c3-4 8-4 11 0" class="s"/>
  <path d="M92 114c4 6 14 6 18 0" class="s"/>
  <!-- bell quiet -->
  <path d="M148 48c0-8 6-14 14-14s14 6 14 14c0 12 4 16 4 16H130s4-4 4-16z" class="s"/>
  <path d="M154 82c2 4 8 4 10 0" class="s"/>
  <!-- zzz -->
  <path d="M40 60h12l-12 12h12" class="a"/>
  <path d="M34 42h8l-8 8h8" class="a"/>
  <path d="M58 118c-10 2-14 12-8 20" class="s"/>
  <path d="M142 118c10 2 14 12 8 20" class="s"/>
  <path d="M78 152v12M122 152v12M70 164h16M114 164h16" class="s"/>

</svg>
